<?xml version="1.0" encoding="iso-8859-1"?>
<!-- Generator: Adobe Illustrator 19.0.0, SVG Export Plug-In . SVG Version: 6.00 Build 0)  -->
<svg version="1.1" id="Capa_1" xmlns="http://www.w3.org/2000/svg" xmlns:xlink="http://www.w3.org/1999/xlink" x="0px" y="0px"
	 viewBox="0 0 512 512" style="enable-background:new 0 0 512 512;" xml:space="preserve">

<g>
	<g>
		<path d="M488.649,316.668c4.143,0,7.5-3.358,7.5-7.5c0-7.008,0-222.165,0-236.377c0-11.738-9.55-21.287-21.286-21.287h-60.276
			V29.776c0-13.64-11.097-24.735-24.734-24.735c-13.64,0-24.735,11.097-24.735,24.735v21.726h-87.375V24.734
			C277.74,11.096,266.645,0,253.007,0c-13.638,0-24.733,11.096-24.733,24.734v26.768h-87.377V27.981
			c0-13.639-11.097-24.734-24.734-24.734S91.426,14.342,91.426,27.981v23.521H37.138c-11.738,0-21.287,9.55-21.287,21.287
			c0,12.722,0,410.543,0,417.922c0,11.739,9.55,21.289,21.287,21.289h437.724c11.737,0,21.286-9.55,21.286-21.288V344.168
			c0-4.142-3.357-7.5-7.5-7.5c-4.142,0-7.5,3.358-7.5,7.5v146.543c0,3.467-2.819,6.287-6.285,6.287H37.138
			c-3.466,0-6.286-2.82-6.286-6.287V179.766h450.296v129.402C481.148,313.309,484.506,316.668,488.649,316.668z M380.116,29.776
			c0-5.368,4.367-9.735,9.735-9.735c5.367,0,9.734,4.367,9.734,9.735c0,11.744,0,43.437,0,55.149c0,5.364-4.365,9.733-9.734,9.733
			c-5.367,0-9.735-4.366-9.735-9.733C380.116,73.208,380.116,41.509,380.116,29.776z M243.273,24.734
			c0-5.367,4.366-9.734,9.733-9.734c5.366,0,9.733,4.366,9.733,9.734c0,5.927,0,48.931,0,55.149c0,5.367-4.366,9.734-9.733,9.734
			c-5.366,0-9.733-4.366-9.733-9.734C243.273,73.666,243.273,30.663,243.273,24.734z M106.427,27.981
			c0-5.367,4.366-9.734,9.733-9.734c5.367,0,9.734,4.366,9.734,9.734c0,9.473,0,43.211,0,55.149c0,5.367-4.366,9.734-9.734,9.734
			c-5.366,0-9.733-4.366-9.733-9.734C106.427,72.76,106.427,39.789,106.427,27.981z M30.852,164.765v-17.414h204.654
			c4.143,0,7.5-3.358,7.5-7.5c0-4.142-3.357-7.5-7.5-7.5H30.852V72.789c0-3.466,2.82-6.286,6.286-6.286h54.288V83.13
			c0,13.639,11.096,24.734,24.733,24.734c13.638,0,24.734-11.096,24.734-24.734V66.503h87.377v13.381
			c0,13.639,11.096,24.734,24.733,24.734c13.638,0,24.733-11.096,24.733-24.734V66.503h87.375v18.422
			c0,13.639,11.097,24.733,24.735,24.733c13.639,0,24.734-11.096,24.734-24.733V66.503h60.276c3.466,0,6.285,2.82,6.285,6.286
			v59.561H270.508c-4.143,0-7.5,3.358-7.5,7.5c0,4.142,3.357,7.5,7.5,7.5h210.64v17.414H30.852z"/>
	</g>
</g>
</svg>
